// BLOBINATIOR: Bach_Fugue_2_1.mid

unsigned char bach_fugue_2_1[9010] =
{
   0x4D,0x54,0x68,0x64,0x00,0x00,0x00,0x06,0x00,0x01,0x00,0x02,0x00,0xF0,0x4D,0x54,
   0x72,0x6B,0x00,0x00,0x00,0x4A,0x00,0xFF,0x58,0x04,0x02,0x02,0x18,0x08,0x00,0xFF,
   0x51,0x03,0x09,0x89,0x68,0x82,0xAE,0x6C,0xFF,0x51,0x03,0x0D,0x0F,0x8D,0x74,0xFF,
   0x51,0x03,0x0D,0x67,0x5A,0x81,0x04,0xFF,0x51,0x03,0x0B,0x07,0xCC,0x81,0x10,0xFF,
   0x51,0x03,0x0B,0xE3,0xD5,0x81,0x24,0xFF,0x51,0x03,0x0D,0x14,0x37,0x28,0xFF,0x51,
   0x03,0x0D,0xDF,0x23,0x83,0x60,0xFF,0x51,0x03,0x09,0x89,0x68,0x00,0xFF,0x2F,0x00,
   0x4D,0x54,0x72,0x6B,0x00,0x00,0x21,0xA7,0x78,0x90,0x43,0x40,0x3C,0x80,0x43,0x40,
   0x00,0x90,0x41,0x40,0x3C,0x80,0x41,0x40,0x00,0x90,0x43,0x40,0x78,0x80,0x43,0x40,
   0x00,0x90,0x3C,0x40,0x74,0x90,0x45,0x46,0x04,0x80,0x3C,0x40,0x18,0x90,0x43,0x46,
   0x02,0x80,0x45,0x40,0x1C,0x80,0x43,0x40,0x06,0x90,0x45,0x40,0x81,0x34,0x80,0x45,
   0x40,0x00,0x90,0x43,0x40,0x81,0x70,0x80,0x43,0x40,0x78,0x90,0x41,0x40,0x3C,0x80,
   0x41,0x40,0x00,0x90,0x40,0x40,0x3C,0x80,0x40,0x40,0x00,0x90,0x41,0x40,0x3C,0x80,
   0x41,0x40,0x00,0x90,0x43,0x40,0x3C,0x80,0x43,0x40,0x00,0x90,0x40,0x40,0x3C,0x80,
   0x40,0x40,0x00,0x90,0x41,0x40,0x3C,0x80,0x41,0x40,0x00,0x90,0x3E,0x40,0x3C,0x80,
   0x3E,0x40,0x00,0x90,0x41,0x40,0x3C,0x80,0x41,0x40,0x00,0x90,0x40,0x40,0x3C,0x80,
   0x40,0x40,0x00,0x90,0x41,0x40,0x3C,0x80,0x41,0x40,0x00,0x90,0x43,0x40,0x3C,0x80,
   0x43,0x40,0x00,0x90,0x45,0x40,0x3C,0x80,0x45,0x40,0x00,0x90,0x41,0x40,0x3C,0x80,
   0x41,0x40,0x00,0x90,0x43,0x40,0x3C,0x80,0x43,0x40,0x00,0x90,0x40,0x40,0x3C,0x80,
   0x40,0x40,0x00,0x90,0x3E,0x40,0x3C,0x80,0x3E,0x40,0x00,0x90,0x48,0x40,0x00,0x90,
   0x40,0x40,0x3C,0x80,0x40,0x40,0x00,0x80,0x48,0x40,0x00,0x90,0x47,0x40,0x00,0x90,
   0x41,0x40,0x3C,0x80,0x41,0x40,0x00,0x80,0x47,0x40,0x00,0x90,0x48,0x40,0x00,0x90,
   0x40,0x40,0x3C,0x80,0x40,0x40,0x00,0x90,0x41,0x40,0x3C,0x80,0x41,0x40,0x00,0x80,
   0x48,0x40,0x00,0x90,0x43,0x40,0x00,0x90,0x3E,0x40,0x3C,0x80,0x3E,0x40,0x00,0x90,
   0x40,0x40,0x3C,0x80,0x40,0x40,0x00,0x80,0x43,0x40,0x00,0x90,0x4C,0x46,0x00,0x90,
   0x3C,0x40,0x18,0x90,0x4A,0x46,0x06,0x80,0x4C,0x40,0x18,0x80,0x4A,0x40,0x06,0x80,
   0x3C,0x40,0x00,0x90,0x4C,0x40,0x00,0x90,0x3B,0x40,0x3C,0x80,0x3B,0x40,0x00,0x90,
   0x3C,0x40,0x3C,0x80,0x3C,0x40,0x00,0x90,0x3E,0x40,0x3C,0x80,0x3E,0x40,0x00,0x80,
   0x4C,0x40,0x00,0x90,0x4A,0x40,0x00,0x90,0x3C,0x40,0x3C,0x80,0x3C,0x40,0x00,0x90,
   0x3E,0x40,0x3C,0x80,0x3E,0x40,0x00,0x90,0x3B,0x40,0x3C,0x80,0x3B,0x40,0x00,0x90,
   0x3C,0x40,0x3C,0x80,0x3C,0x40,0x00,0x90,0x39,0x40,0x3C,0x80,0x39,0x40,0x00,0x90,
   0x3B,0x40,0x3C,0x80,0x3B,0x40,0x00,0x80,0x4A,0x40,0x00,0x90,0x48,0x40,0x00,0x90,
   0x3C,0x40,0x3C,0x80,0x3C,0x40,0x00,0x80,0x48,0x40,0x00,0x90,0x47,0x40,0x00,0x90,
   0x3E,0x40,0x3C,0x80,0x3E,0x40,0x00,0x80,0x47,0x40,0x00,0x90,0x48,0x40,0x00,0x90,
   0x40,0x40,0x3C,0x80,0x40,0x40,0x00,0x80,0x48,0x40,0x00,0x90,0x4A,0x40,0x00,0x90,
   0x42,0x40,0x3C,0x80,0x42,0x40,0x00,0x80,0x4A,0x40,0x00,0x90,0x43,0x40,0x00,0x90,
   0x47,0x40,0x3C,0x80,0x47,0x40,0x00,0x90,0x48,0x40,0x3C,0x80,0x48,0x40,0x00,0x90,
   0x45,0x40,0x3C,0x80,0x45,0x40,0x00,0x90,0x48,0x40,0x3C,0x80,0x48,0x40,0x00,0x80,
   0x43,0x40,0x00,0x90,0x47,0x40,0x00,0x90,0x42,0x40,0x3C,0x80,0x42,0x40,0x00,0x80,
   0x47,0x40,0x00,0x90,0x48,0x40,0x00,0x90,0x40,0x40,0x3C,0x80,0x40,0x40,0x00,0x80,
   0x48,0x40,0x00,0x90,0x42,0x46,0x00,0x90,0x4A,0x40,0x1C,0x90,0x40,0x46,0x02,0x80,
   0x42,0x40,0x1C,0x80,0x40,0x40,0x02,0x80,0x4A,0x40,0x00,0x90,0x42,0x40,0x00,0x90,
   0x4C,0x40,0x3C,0x80,0x4C,0x40,0x00,0x90,0x48,0x40,0x3C,0x80,0x48,0x40,0x00,0x90,
   0x4A,0x40,0x3C,0x80,0x4A,0x40,0x00,0x80,0x42,0x40,0x00,0x90,0x43,0x40,0x00,0x90,
   0x47,0x40,0x3C,0x80,0x47,0x40,0x00,0x90,0x45,0x40,0x3C,0x80,0x45,0x40,0x00,0x90,
   0x47,0x40,0x00,0x90,0x37,0x40,0x3C,0x80,0x37,0x40,0x00,0x80,0x47,0x40,0x00,0x90,
   0x48,0x40,0x00,0x90,0x35,0x40,0x3C,0x80,0x35,0x40,0x00,0x80,0x48,0x40,0x00,0x90,
   0x47,0x40,0x00,0x90,0x37,0x40,0x3C,0x80,0x47,0x40,0x00,0x90,0x48,0x40,0x3C,0x80,
   0x48,0x40,0x00,0x80,0x37,0x40,0x00,0x90,0x30,0x40,0x00,0x90,0x45,0x40,0x3C,0x80,
   0x45,0x40,0x00,0x90,0x47,0x40,0x3C,0x80,0x47,0x40,0x00,0x80,0x30,0x40,0x00,0x90,
   0x39,0x46,0x00,0x90,0x48,0x40,0x1C,0x90,0x37,0x46,0x02,0x80,0x39,0x40,0x1C,0x80,
   0x37,0x40,0x02,0x80,0x43,0x40,0x00,0x90,0x39,0x40,0x00,0x90,0x40,0x40,0x3C,0x80,
   0x40,0x40,0x00,0x90,0x41,0x40,0x3C,0x80,0x48,0x40,0x00,0x90,0x45,0x40,0x3C,0x80,
   0x45,0x40,0x00,0x80,0x39,0x40,0x00,0x90,0x37,0x40,0x00,0x90,0x46,0x40,0x3C,0x80,
   0x41,0x40,0x00,0x90,0x3E,0x40,0x3C,0x80,0x3E,0x40,0x00,0x90,0x40,0x40,0x3C,0x80,
   0x46,0x40,0x00,0x90,0x43,0x40,0x3C,0x80,0x43,0x40,0x00,0x80,0x37,0x40,0x00,0x90,
   0x45,0x40,0x78,0x80,0x40,0x40,0x00,0x90,0x3E,0x40,0x00,0x90,0x35,0x40,0x3C,0x80,
   0x35,0x40,0x00,0x90,0x34,0x40,0x3C,0x80,0x34,0x40,0x00,0x80,0x3E,0x40,0x00,0x80,
   0x45,0x40,0x00,0x90,0x43,0x40,0x00,0x90,0x47,0x40,0x00,0x90,0x35,0x40,0x3C,0x80,
   0x35,0x40,0x00,0x90,0x37,0x40,0x3C,0x80,0x37,0x40,0x00,0x80,0x47,0x40,0x00,0x90,
   0x48,0x40,0x00,0x90,0x34,0x40,0x3C,0x80,0x34,0x40,0x00,0x90,0x35,0x40,0x3C,0x80,
   0x35,0x40,0x00,0x80,0x43,0x40,0x00,0x90,0x41,0x40,0x00,0x90,0x32,0x40,0x3C,0x80,
   0x32,0x40,0x00,0x80,0x41,0x40,0x00,0x90,0x45,0x40,0x00,0x90,0x35,0x40,0x3C,0x80,
   0x35,0x40,0x00,0x80,0x45,0x40,0x00,0x80,0x48,0x40,0x00,0x90,0x48,0x40,0x00,0x90,
   0x43,0x40,0x00,0x90,0x34,0x40,0x3C,0x80,0x34,0x40,0x00,0x80,0x43,0x40,0x00,0x90,
   0x45,0x40,0x00,0x90,0x35,0x40,0x3C,0x80,0x35,0x40,0x00,0x80,0x45,0x40,0x00,0x90,
   0x3E,0x40,0x00,0x90,0x37,0x40,0x3C,0x80,0x37,0x40,0x00,0x90,0x39,0x40,0x3C,0x80,
   0x39,0x40,0x00,0x80,0x48,0x40,0x00,0x90,0x47,0x40,0x00,0x90,0x35,0x40,0x3C,0x80,
   0x35,0x40,0x00,0x90,0x37,0x40,0x3C,0x80,0x37,0x40,0x00,0x80,0x47,0x40,0x00,0x80,
   0x3E,0x40,0x00,0x90,0x48,0x40,0x00,0x90,0x3C,0x40,0x00,0x90,0x34,0x40,0x3C,0x80,
   0x34,0x40,0x00,0x90,0x32,0x40,0x3C,0x80,0x32,0x40,0x00,0x80,0x48,0x40,0x00,0x90,
   0x4F,0x40,0x00,0x90,0x34,0x40,0x3C,0x80,0x34,0x40,0x00,0x80,0x4F,0x40,0x00,0x90,
   0x4D,0x40,0x00,0x90,0x35,0x40,0x3C,0x80,0x35,0x40,0x00,0x80,0x4D,0x40,0x00,0x80,
   0x3C,0x40,0x00,0x90,0x4F,0x40,0x00,0x90,0x34,0x40,0x3C,0x80,0x34,0x40,0x00,0x90,
   0x35,0x40,0x3C,0x80,0x35,0x40,0x00,0x80,0x4F,0x40,0x00,0x90,0x48,0x40,0x00,0x90,
   0x32,0x40,0x3C,0x80,0x32,0x40,0x00,0x90,0x34,0x40,0x3C,0x80,0x34,0x40,0x00,0x80,
   0x48,0x40,0x00,0x90,0x51,0x40,0x00,0x90,0x35,0x40,0x3C,0x80,0x35,0x40,0x00,0x90,
   0x34,0x40,0x3C,0x80,0x34,0x40,0x00,0x90,0x48,0x40,0x00,0x90,0x35,0x40,0x3C,0x80,
   0x35,0x40,0x00,0x80,0x48,0x40,0x00,0x90,0x47,0x40,0x00,0x90,0x37,0x40,0x3C,0x80,
   0x37,0x40,0x00,0x80,0x47,0x40,0x00,0x80,0x51,0x40,0x00,0x90,0x4F,0x40,0x00,0x90,
   0x48,0x40,0x00,0x90,0x35,0x40,0x3C,0x80,0x35,0x40,0x00,0x90,0x37,0x40,0x3C,0x80,
   0x37,0x40,0x00,0x80,0x48,0x40,0x00,0x90,0x43,0x40,0x00,0x90,0x34,0x40,0x3C,0x80,
   0x34,0x40,0x00,0x90,0x35,0x40,0x3C,0x80,0x35,0x40,0x00,0x80,0x43,0x40,0x00,0x80,
   0x4F,0x40,0x00,0x90,0x4E,0x40,0x00,0x90,0x4A,0x40,0x00,0x90,0x32,0x40,0x3C,0x80,
   0x32,0x40,0x00,0x90,0x31,0x40,0x3C,0x80,0x31,0x40,0x00,0x80,0x4E,0x40,0x00,0x90,
   0x51,0x40,0x00,0x90,0x32,0x40,0x3C,0x80,0x32,0x40,0x00,0x80,0x51,0x40,0x00,0x90,
   0x4F,0x40,0x00,0x90,0x34,0x40,0x3C,0x80,0x34,0x40,0x00,0x80,0x4F,0x40,0x00,0x80,
   0x4A,0x40,0x00,0x90,0x48,0x40,0x00,0x90,0x51,0x40,0x00,0x90,0x36,0x40,0x3C,0x80,
   0x36,0x40,0x00,0x90,0x37,0x40,0x3C,0x80,0x37,0x40,0x00,0x80,0x51,0x40,0x00,0x90,
   0x4A,0x40,0x00,0x90,0x34,0x40,0x3C,0x80,0x34,0x40,0x00,0x90,0x36,0x40,0x3C,0x80,
   0x36,0x40,0x00,0x80,0x4A,0x40,0x00,0x80,0x48,0x40,0x00,0x90,0x53,0x40,0x00,0x90,
   0x47,0x40,0x00,0x90,0x37,0x40,0x3C,0x80,0x37,0x40,0x00,0x90,0x36,0x40,0x3C,0x80,
   0x36,0x40,0x00,0x80,0x47,0x40,0x00,0x90,0x4A,0x40,0x00,0x90,0x37,0x40,0x3C,0x80,
   0x37,0x40,0x00,0x80,0x4A,0x40,0x00,0x90,0x48,0x40,0x00,0x90,0x39,0x40,0x3C,0x80,
   0x39,0x40,0x00,0x80,0x48,0x40,0x00,0x80,0x53,0x40,0x00,0x90,0x51,0x40,0x00,0x90,
   0x4A,0x40,0x00,0x90,0x37,0x40,0x3C,0x80,0x37,0x40,0x00,0x90,0x39,0x40,0x3C,0x80,
   0x39,0x40,0x00,0x80,0x4A,0x40,0x00,0x90,0x45,0x40,0x00,0x90,0x35,0x40,0x3C,0x80,
   0x35,0x40,0x00,0x90,0x37,0x40,0x3C,0x80,0x37,0x40,0x00,0x80,0x45,0x40,0x00,0x80,
   0x51,0x40,0x00,0x90,0x50,0x40,0x00,0x90,0x4C,0x40,0x00,0x90,0x34,0x40,0x3C,0x80,
   0x34,0x40,0x00,0x90,0x32,0x40,0x3C,0x80,0x32,0x40,0x00,0x80,0x50,0x40,0x00,0x90,
   0x53,0x40,0x00,0x90,0x34,0x40,0x3C,0x80,0x34,0x40,0x00,0x80,0x53,0x40,0x00,0x90,
   0x51,0x40,0x00,0x90,0x36,0x40,0x3C,0x80,0x36,0x40,0x00,0x80,0x51,0x40,0x00,0x80,
   0x4C,0x40,0x00,0x90,0x4A,0x40,0x00,0x90,0x53,0x40,0x00,0x90,0x38,0x40,0x3C,0x80,
   0x38,0x40,0x00,0x90,0x39,0x40,0x3C,0x80,0x39,0x40,0x00,0x80,0x53,0x40,0x00,0x90,
   0x4C,0x40,0x00,0x90,0x36,0x40,0x3C,0x80,0x36,0x40,0x00,0x90,0x38,0x40,0x3C,0x80,
   0x38,0x40,0x00,0x80,0x4C,0x40,0x00,0x80,0x4A,0x40,0x00,0x90,0x54,0x40,0x00,0x90,
   0x48,0x40,0x00,0x90,0x39,0x40,0x3C,0x80,0x39,0x40,0x00,0x90,0x38,0x40,0x3C,0x80,
   0x38,0x40,0x00,0x80,0x48,0x40,0x00,0x90,0x4C,0x40,0x00,0x90,0x39,0x40,0x3C,0x80,
   0x39,0x40,0x00,0x80,0x4C,0x40,0x00,0x90,0x4A,0x40,0x00,0x90,0x3B,0x40,0x3C,0x80,
   0x3B,0x40,0x00,0x80,0x4A,0x40,0x00,0x90,0x4C,0x40,0x00,0x90,0x39,0x40,0x3C,0x80,
   0x39,0x40,0x00,0x90,0x3B,0x40,0x3C,0x80,0x3B,0x40,0x00,0x80,0x4C,0x40,0x00,0x90,
   0x51,0x40,0x00,0x90,0x37,0x40,0x3C,0x80,0x37,0x40,0x00,0x90,0x39,0x40,0x3C,0x80,
   0x39,0x40,0x00,0x80,0x51,0x40,0x00,0x90,0x4A,0x40,0x00,0x90,0x36,0x40,0x3C,0x80,
   0x36,0x40,0x00,0x90,0x37,0x40,0x3C,0x80,0x37,0x40,0x00,0x80,0x54,0x40,0x00,0x90,
   0x54,0x40,0x00,0x90,0x34,0x40,0x3C,0x80,0x34,0x40,0x00,0x90,0x36,0x40,0x3C,0x80,
   0x36,0x40,0x00,0x80,0x54,0x40,0x00,0x90,0x53,0x40,0x00,0x90,0x37,0x40,0x3C,0x80,
   0x37,0x40,0x00,0x90,0x39,0x40,0x3C,0x80,0x39,0x40,0x00,0x80,0x53,0x40,0x00,0x90,
   0x4F,0x40,0x00,0x90,0x3B,0x40,0x3C,0x80,0x3B,0x40,0x00,0x90,0x37,0x40,0x3C,0x80,
   0x37,0x40,0x00,0x80,0x4F,0x40,0x00,0x90,0x4C,0x40,0x00,0x90,0x3C,0x40,0x3C,0x80,
   0x3C,0x40,0x00,0x90,0x3B,0x40,0x3C,0x80,0x3B,0x40,0x00,0x80,0x4A,0x40,0x00,0x90,
   0x48,0x40,0x00,0x90,0x3C,0x40,0x3C,0x80,0x3C,0x40,0x00,0x80,0x48,0x40,0x00,0x90,
   0x47,0x40,0x00,0x90,0x3E,0x40,0x3C,0x80,0x3E,0x40,0x00,0x80,0x47,0x40,0x00,0x80,
   0x4C,0x40,0x00,0x90,0x4E,0x40,0x00,0x90,0x45,0x40,0x00,0x90,0x3C,0x40,0x3C,0x80,
   0x3C,0x40,0x00,0x90,0x3E,0x40,0x3C,0x80,0x3E,0x40,0x00,0x80,0x45,0x40,0x00,0x80,
   0x4E,0x40,0x00,0x90,0x47,0x40,0x00,0x90,0x4F,0x40,0x00,0x90,0x3B,0x40,0x3C,0x80,
   0x3B,0x40,0x00,0x90,0x3C,0x40,0x3C,0x80,0x3C,0x40,0x00,0x90,0x3E,0x40,0x78,0x80,
   0x4F,0x40,0x00,0x80,0x47,0x40,0x00,0x90,0x4E,0x40,0x00,0x90,0x45,0x40,0x3C,0x80,
   0x45,0x40,0x00,0x80,0x4E,0x40,0x00,0x90,0x4C,0x40,0x00,0x90,0x43,0x40,0x3C,0x80,
   0x43,0x40,0x00,0x80,0x4C,0x40,0x00,0x90,0x4E,0x40,0x00,0x90,0x45,0x40,0x78,0x80,
   0x45,0x40,0x00,0x90,0x3E,0x40,0x3C,0x80,0x4E,0x40,0x00,0x90,0x4F,0x40,0x3C,0x80,
   0x4F,0x40,0x00,0x80,0x3E,0x40,0x00,0x80,0x3E,0x40,0x00,0x90,0x4F,0x40,0x00,0x90,
   0x47,0x40,0x00,0x90,0x37,0x40,0x78,0x80,0x37,0x40,0x00,0x80,0x4F,0x40,0x00,0x90,
   0x4C,0x40,0x00,0x90,0x43,0x40,0x3C,0x80,0x43,0x40,0x00,0x90,0x41,0x40,0x3C,0x80,
   0x41,0x40,0x00,0x80,0x4C,0x40,0x00,0x80,0x47,0x40,0x00,0x90,0x49,0x40,0x00,0x90,
   0x45,0x40,0x00,0x90,0x43,0x40,0x3C,0x80,0x43,0x40,0x00,0x90,0x45,0x40,0x3C,0x80,
   0x45,0x40,0x00,0x80,0x49,0x40,0x00,0x90,0x4A,0x40,0x00,0x90,0x41,0x40,0x3C,0x80,
   0x41,0x40,0x00,0x90,0x43,0x40,0x3C,0x80,0x43,0x40,0x00,0x80,0x45,0x40,0x00,0x90,
   0x40,0x40,0x3C,0x80,0x4A,0x40,0x00,0x90,0x4F,0x40,0x3C,0x80,0x4F,0x40,0x00,0x90,
   0x52,0x40,0x00,0x90,0x43,0x40,0x3C,0x80,0x43,0x40,0x00,0x80,0x52,0x40,0x00,0x90,
   0x51,0x40,0x00,0x90,0x41,0x40,0x3C,0x80,0x41,0x40,0x00,0x80,0x51,0x40,0x00,0x90,
   0x4F,0x40,0x00,0x90,0x43,0x40,0x3C,0x80,0x43,0x40,0x00,0x80,0x4F,0x40,0x00,0x90,
   0x4D,0x40,0x00,0x90,0x45,0x40,0x3C,0x80,0x45,0x40,0x00,0x80,0x4D,0x40,0x00,0x90,
   0x4C,0x40,0x00,0x90,0x41,0x40,0x3C,0x80,0x41,0x40,0x00,0x80,0x4C,0x40,0x00,0x90,
   0x43,0x40,0x00,0x90,0x4A,0x40,0x3C,0x80,0x4A,0x40,0x00,0x80,0x43,0x40,0x00,0x80,
   0x40,0x40,0x00,0x90,0x49,0x40,0x00,0x90,0x40,0x40,0x3C,0x80,0x40,0x40,0x00,0x90,
   0x43,0x40,0x3C,0x80,0x43,0x40,0x00,0x80,0x49,0x40,0x00,0x90,0x4A,0x40,0x00,0x90,
   0x41,0x40,0x00,0x90,0x3E,0x40,0x3C,0x80,0x41,0x40,0x00,0x90,0x43,0x40,0x3C,0x80,
   0x43,0x40,0x00,0x80,0x3E,0x40,0x00,0x90,0x45,0x40,0x00,0x90,0x35,0x40,0x3C,0x80,
   0x45,0x40,0x00,0x90,0x46,0x40,0x3C,0x80,0x46,0x40,0x00,0x80,0x35,0x40,0x00,0x80,
   0x4A,0x40,0x00,0x90,0x39,0x40,0x00,0x90,0x49,0x40,0x00,0x90,0x43,0x40,0x3C,0x80,
   0x43,0x40,0x00,0x90,0x45,0x40,0x3C,0x80,0x45,0x40,0x00,0x80,0x49,0x40,0x00,0x80,
   0x39,0x40,0x00,0x90,0x41,0x40,0x00,0x90,0x32,0x40,0x3C,0x80,0x41,0x40,0x00,0x90,
   0x40,0x40,0x3C,0x80,0x40,0x40,0x00,0x80,0x32,0x40,0x00,0x90,0x4A,0x40,0x00,0x90,
   0x41,0x40,0x3C,0x80,0x41,0x40,0x00,0x80,0x4A,0x40,0x00,0x90,0x49,0x40,0x00,0x90,
   0x43,0x40,0x3C,0x80,0x43,0x40,0x00,0x80,0x49,0x40,0x00,0x90,0x4A,0x40,0x00,0x90,
   0x41,0x40,0x3C,0x80,0x41,0x40,0x00,0x90,0x43,0x40,0x3C,0x80,0x43,0x40,0x00,0x80,
   0x4A,0x40,0x00,0x90,0x45,0x40,0x00,0x90,0x40,0x40,0x3C,0x80,0x40,0x40,0x00,0x90,
   0x41,0x40,0x3C,0x80,0x41,0x40,0x00,0x80,0x45,0x40,0x00,0x90,0x4D,0x40,0x00,0x90,
   0x3E,0x40,0x3C,0x80,0x3E,0x40,0x00,0x90,0x3C,0x40,0x3C,0x80,0x3C,0x40,0x00,0x90,
   0x3E,0x40,0x3C,0x80,0x3E,0x40,0x00,0x90,0x40,0x40,0x3C,0x80,0x40,0x40,0x00,0x80,
   0x4D,0x40,0x00,0x90,0x4C,0x40,0x00,0x90,0x3E,0x40,0x3C,0x80,0x3E,0x40,0x00,0x90,
   0x40,0x40,0x3C,0x80,0x40,0x40,0x00,0x90,0x3C,0x40,0x3C,0x80,0x3C,0x40,0x00,0x90,
   0x3E,0x40,0x3C,0x80,0x3E,0x40,0x00,0x80,0x4C,0x40,0x00,0x90,0x3B,0x40,0x3C,0x80,
   0x3B,0x40,0x00,0x90,0x3C,0x40,0x3C,0x80,0x3C,0x40,0x00,0x90,0x4A,0x40,0x00,0x90,
   0x3E,0x40,0x3C,0x80,0x3E,0x40,0x00,0x80,0x4A,0x40,0x00,0x90,0x48,0x40,0x00,0x90,
   0x40,0x40,0x3C,0x80,0x40,0x40,0x00,0x80,0x48,0x40,0x00,0x90,0x4A,0x40,0x00,0x90,
   0x42,0x40,0x3C,0x80,0x42,0x40,0x00,0x80,0x4A,0x40,0x00,0x90,0x4C,0x40,0x00,0x90,
   0x44,0x40,0x3C,0x80,0x44,0x40,0x00,0x80,0x4C,0x40,0x00,0x90,0x45,0x40,0x00,0x90,
   0x48,0x40,0x3C,0x80,0x48,0x40,0x00,0x90,0x4A,0x40,0x3C,0x80,0x4A,0x40,0x00,0x90,
   0x47,0x40,0x3C,0x80,0x47,0x40,0x00,0x90,0x4A,0x40,0x3C,0x80,0x4A,0x40,0x00,0x80,
   0x45,0x40,0x00,0x90,0x48,0x40,0x00,0x90,0x44,0x40,0x3C,0x80,0x44,0x40,0x00,0x80,
   0x48,0x40,0x00,0x90,0x4A,0x40,0x00,0x90,0x42,0x40,0x3C,0x80,0x42,0x40,0x00,0x80,
   0x4A,0x40,0x00,0x90,0x45,0x4C,0x00,0x90,0x4C,0x40,0x14,0x80,0x45,0x2E,0x00,0x90,
   0x44,0x38,0x14,0x80,0x44,0x34,0x00,0x90,0x45,0x39,0x14,0x80,0x45,0x28,0x00,0x80,
   0x4C,0x40,0x00,0x90,0x44,0x3B,0x00,0x90,0x4D,0x40,0x14,0x80,0x44,0x39,0x00,0x90,
   0x45,0x3C,0x14,0x80,0x45,0x21,0x00,0x90,0x44,0x3E,0x14,0x80,0x4D,0x40,0x00,0x90,
   0x4A,0x40,0x3C,0x80,0x4A,0x40,0x00,0x90,0x4C,0x40,0x3C,0x80,0x4C,0x40,0x00,0x80,
   0x44,0x34,0x00,0x90,0x48,0x40,0x00,0x90,0x45,0x40,0x3C,0x80,0x45,0x40,0x00,0x90,
   0x44,0x40,0x3C,0x80,0x44,0x40,0x00,0x80,0x48,0x40,0x00,0x90,0x4C,0x40,0x00,0x90,
   0x45,0x40,0x3C,0x80,0x45,0x40,0x00,0x80,0x4C,0x40,0x00,0x90,0x4A,0x40,0x00,0x90,
   0x47,0x40,0x3C,0x80,0x47,0x40,0x00,0x80,0x4A,0x40,0x00,0x90,0x4C,0x40,0x00,0x90,
   0x45,0x40,0x3C,0x80,0x45,0x40,0x00,0x90,0x47,0x40,0x3C,0x80,0x47,0x40,0x00,0x80,
   0x4C,0x40,0x00,0x90,0x48,0x40,0x00,0x90,0x43,0x40,0x3C,0x80,0x43,0x40,0x00,0x90,
   0x45,0x40,0x3C,0x80,0x45,0x40,0x00,0x80,0x48,0x40,0x00,0x90,0x51,0x40,0x00,0x90,
   0x42,0x40,0x3C,0x80,0x42,0x40,0x00,0x90,0x40,0x40,0x3C,0x80,0x40,0x40,0x00,0x80,
   0x51,0x40,0x00,0x90,0x48,0x40,0x00,0x90,0x42,0x40,0x3C,0x80,0x42,0x40,0x00,0x90,
   0x43,0x40,0x3C,0x80,0x43,0x40,0x00,0x80,0x48,0x40,0x00,0x90,0x45,0x40,0x00,0x90,
   0x42,0x40,0x3C,0x80,0x42,0x40,0x00,0x90,0x43,0x40,0x3C,0x80,0x43,0x40,0x00,0x80,
   0x45,0x40,0x00,0x90,0x4A,0x40,0x00,0x90,0x40,0x40,0x3C,0x80,0x40,0x40,0x00,0x90,
   0x42,0x40,0x3C,0x80,0x42,0x40,0x00,0x80,0x4A,0x40,0x00,0x90,0x47,0x40,0x00,0x90,
   0x43,0x40,0x3C,0x80,0x43,0x40,0x00,0x90,0x42,0x40,0x3C,0x80,0x42,0x40,0x00,0x80,
   0x47,0x40,0x00,0x90,0x4A,0x40,0x00,0x90,0x43,0x40,0x3C,0x80,0x43,0x40,0x00,0x80,
   0x4A,0x40,0x00,0x90,0x48,0x40,0x00,0x90,0x45,0x40,0x3C,0x80,0x45,0x40,0x00,0x80,
   0x48,0x40,0x00,0x90,0x4A,0x40,0x00,0x90,0x43,0x40,0x3C,0x80,0x43,0x40,0x00,0x90,
   0x45,0x40,0x3C,0x80,0x45,0x40,0x00,0x80,0x4A,0x40,0x00,0x90,0x47,0x40,0x00,0x90,
   0x41,0x40,0x3C,0x80,0x41,0x40,0x00,0x90,0x43,0x40,0x3C,0x80,0x43,0x40,0x00,0x80,
   0x47,0x40,0x00,0x90,0x4F,0x40,0x00,0x90,0x40,0x40,0x3C,0x80,0x40,0x40,0x00,0x90,
   0x3E,0x40,0x3C,0x80,0x3E,0x40,0x00,0x80,0x4F,0x40,0x00,0x90,0x46,0x40,0x00,0x90,
   0x40,0x40,0x3C,0x80,0x40,0x40,0x00,0x90,0x41,0x40,0x3C,0x80,0x41,0x40,0x00,0x80,
   0x46,0x40,0x00,0x90,0x43,0x40,0x00,0x90,0x40,0x40,0x3C,0x80,0x40,0x40,0x00,0x90,
   0x41,0x40,0x3C,0x80,0x41,0x40,0x00,0x80,0x43,0x40,0x00,0x90,0x48,0x40,0x00,0x90,
   0x3E,0x40,0x3C,0x80,0x3E,0x40,0x00,0x90,0x40,0x40,0x3C,0x80,0x40,0x40,0x00,0x80,
   0x48,0x40,0x00,0x90,0x45,0x40,0x00,0x90,0x41,0x40,0x3C,0x80,0x41,0x40,0x00,0x90,
   0x40,0x40,0x3C,0x80,0x40,0x40,0x00,0x80,0x45,0x40,0x00,0x90,0x4A,0x40,0x00,0x90,
   0x41,0x40,0x3C,0x80,0x41,0x40,0x00,0x80,0x4A,0x40,0x00,0x90,0x48,0x40,0x00,0x90,
   0x43,0x40,0x3C,0x80,0x43,0x40,0x00,0x80,0x48,0x40,0x00,0x90,0x4A,0x40,0x00,0x90,
   0x41,0x40,0x3C,0x80,0x41,0x40,0x00,0x80,0x4A,0x40,0x00,0x90,0x4C,0x40,0x00,0x90,
   0x43,0x40,0x3C,0x80,0x43,0x40,0x00,0x80,0x4C,0x40,0x00,0x90,0x48,0x40,0x00,0x90,
   0x40,0x40,0x3C,0x80,0x40,0x40,0x00,0x80,0x48,0x40,0x00,0x90,0x41,0x40,0x00,0x90,
   0x4A,0x40,0x3C,0x80,0x4A,0x40,0x00,0x80,0x41,0x40,0x00,0x90,0x47,0x40,0x00,0x90,
   0x3E,0x40,0x3C,0x80,0x47,0x40,0x00,0x90,0x45,0x40,0x3C,0x80,0x45,0x40,0x00,0x80,
   0x3E,0x40,0x00,0x90,0x47,0x40,0x00,0x90,0x43,0x40,0x3C,0x80,0x43,0x40,0x00,0x80,
   0x47,0x40,0x00,0x90,0x48,0x40,0x00,0x90,0x41,0x40,0x3C,0x80,0x41,0x40,0x00,0x80,
   0x48,0x40,0x00,0x90,0x47,0x40,0x00,0x90,0x43,0x40,0x3C,0x80,0x43,0x40,0x00,0x80,
   0x47,0x40,0x00,0x90,0x45,0x40,0x00,0x90,0x48,0x40,0x38,0x80,0x45,0x40,0x04,0x80,
   0x48,0x40,0x00,0x90,0x45,0x40,0x00,0x90,0x41,0x40,0x3C,0x80,0x41,0x40,0x00,0x80,
   0x45,0x40,0x00,0x90,0x47,0x40,0x00,0x90,0x43,0x40,0x3C,0x80,0x43,0x40,0x00,0x80,
   0x47,0x40,0x00,0x90,0x43,0x40,0x00,0x90,0x40,0x40,0x3C,0x80,0x40,0x40,0x00,0x90,
   0x3E,0x40,0x3C,0x80,0x3E,0x40,0x00,0x80,0x43,0x40,0x00,0x90,0x48,0x40,0x00,0x90,
   0x40,0x40,0x3C,0x80,0x40,0x40,0x00,0x80,0x48,0x40,0x00,0x90,0x47,0x40,0x00,0x90,
   0x41,0x40,0x3C,0x80,0x41,0x40,0x00,0x80,0x47,0x40,0x00,0x90,0x48,0x40,0x00,0x90,
   0x40,0x40,0x3C,0x80,0x40,0x40,0x00,0x80,0x48,0x40,0x00,0x90,0x4A,0x40,0x00,0x90,
   0x41,0x40,0x3C,0x80,0x41,0x40,0x00,0x80,0x4A,0x40,0x00,0x90,0x46,0x40,0x00,0x90,
   0x3E,0x40,0x3C,0x80,0x3E,0x40,0x00,0x80,0x46,0x40,0x00,0x90,0x40,0x40,0x00,0x90,
   0x48,0x40,0x3C,0x80,0x48,0x40,0x00,0x80,0x40,0x40,0x00,0x90,0x45,0x40,0x00,0x90,
   0x3C,0x40,0x3C,0x80,0x45,0x40,0x00,0x90,0x43,0x40,0x3C,0x80,0x43,0x40,0x00,0x80,
   0x3C,0x40,0x00,0x90,0x45,0x40,0x00,0x90,0x41,0x40,0x3C,0x80,0x41,0x40,0x00,0x80,
   0x45,0x40,0x00,0x90,0x46,0x40,0x00,0x90,0x40,0x40,0x3C,0x80,0x40,0x40,0x00,0x80,
   0x46,0x40,0x00,0x90,0x45,0x40,0x00,0x90,0x41,0x40,0x3C,0x80,0x41,0x40,0x00,0x80,
   0x45,0x40,0x00,0x90,0x43,0x40,0x00,0x90,0x46,0x40,0x38,0x80,0x43,0x40,0x04,0x80,
   0x46,0x40,0x00,0x90,0x43,0x40,0x00,0x90,0x40,0x40,0x3C,0x80,0x40,0x40,0x00,0x80,
   0x43,0x40,0x00,0x90,0x45,0x40,0x00,0x90,0x41,0x40,0x3C,0x80,0x41,0x40,0x00,0x80,
   0x45,0x40,0x00,0x90,0x43,0x4C,0x00,0x90,0x3E,0x40,0x14,0x80,0x43,0x23,0x00,0x90,
   0x41,0x38,0x14,0x90,0x43,0x38,0x02,0x80,0x41,0x27,0x12,0x80,0x3E,0x40,0x00,0x90,
   0x41,0x38,0x00,0x90,0x3C,0x40,0x02,0x80,0x43,0x2F,0x12,0x90,0x43,0x38,0x02,0x80,
   0x41,0x26,0x12,0x90,0x41,0x39,0x02,0x80,0x43,0x31,0x12,0x80,0x3C,0x40,0x00,0x90,
   0x43,0x39,0x00,0x90,0x3E,0x40,0x02,0x80,0x41,0x2E,0x12,0x90,0x41,0x39,0x02,0x80,
   0x43,0x37,0x12,0x90,0x43,0x3A,0x02,0x80,0x41,0x25,0x12,0x80,0x3E,0x40,0x00,0x90,
   0x41,0x3A,0x00,0x90,0x40,0x40,0x02,0x80,0x43,0x35,0x12,0x90,0x43,0x3A,0x02,0x80,
   0x41,0x22,0x12,0x90,0x41,0x3B,0x02,0x80,0x43,0x31,0x12,0x80,0x40,0x40,0x00,0x90,
   0x43,0x3B,0x00,0x90,0x3E,0x40,0x02,0x80,0x41,0x2B,0x12,0x90,0x41,0x3B,0x02,0x80,
   0x43,0x2E,0x12,0x90,0x43,0x3B,0x02,0x80,0x41,0x22,0x12,0x80,0x3E,0x40,0x00,0x90,
   0x41,0x3C,0x00,0x90,0x40,0x40,0x02,0x80,0x43,0x31,0x12,0x90,0x43,0x3C,0x02,0x80,
   0x41,0x2B,0x12,0x90,0x41,0x3C,0x02,0x80,0x43,0x34,0x12,0x80,0x40,0x40,0x00,0x90,
   0x43,0x3D,0x00,0x90,0x3C,0x40,0x02,0x80,0x41,0x26,0x12,0x90,0x41,0x3D,0x02,0x80,
   0x43,0x31,0x12,0x90,0x43,0x3D,0x02,0x80,0x41,0x2A,0x12,0x80,0x3C,0x40,0x00,0x90,
   0x41,0x3E,0x00,0x90,0x3E,0x40,0x02,0x80,0x43,0x32,0x12,0x90,0x43,0x3E,0x02,0x80,
   0x41,0x19,0x12,0x90,0x41,0x3E,0x02,0x80,0x43,0x2F,0x12,0x80,0x3E,0x40,0x00,0x90,
   0x43,0x3E,0x00,0x90,0x3B,0x40,0x02,0x80,0x41,0x28,0x12,0x90,0x41,0x3F,0x02,0x80,
   0x43,0x2E,0x12,0x90,0x43,0x3F,0x02,0x80,0x41,0x2C,0x12,0x80,0x3B,0x40,0x00,0x90,
   0x41,0x3F,0x00,0x90,0x39,0x40,0x02,0x80,0x43,0x22,0x3A,0x80,0x39,0x40,0x00,0x80,
   0x41,0x17,0x00,0x90,0x4A,0x40,0x00,0x90,0x3B,0x40,0x3C,0x80,0x3B,0x40,0x00,0x80,
   0x4A,0x40,0x00,0x90,0x48,0x40,0x00,0x90,0x3C,0x40,0x3C,0x80,0x3C,0x40,0x00,0x80,
   0x48,0x40,0x00,0x90,0x4A,0x40,0x00,0x90,0x3B,0x40,0x3C,0x80,0x3B,0x40,0x00,0x90,
   0x3C,0x40,0x3C,0x80,0x3C,0x40,0x00,0x80,0x4A,0x40,0x00,0x90,0x41,0x40,0x00,0x90,
   0x39,0x40,0x3C,0x80,0x39,0x40,0x00,0x90,0x3B,0x40,0x3C,0x80,0x3B,0x40,0x00,0x80,
   0x41,0x40,0x00,0x90,0x40,0x40,0x00,0x90,0x3C,0x40,0x3C,0x80,0x40,0x40,0x00,0x90,
   0x3E,0x40,0x3C,0x80,0x3E,0x40,0x00,0x90,0x40,0x40,0x00,0x90,0x30,0x40,0x3C,0x80,
   0x30,0x40,0x00,0x80,0x40,0x40,0x00,0x90,0x41,0x40,0x00,0x90,0x2F,0x40,0x3C,0x80,
   0x2F,0x40,0x00,0x80,0x41,0x40,0x00,0x90,0x40,0x40,0x00,0x90,0x30,0x40,0x3C,0x80,
   0x40,0x40,0x00,0x90,0x41,0x40,0x3C,0x80,0x41,0x40,0x00,0x80,0x30,0x40,0x00,0x80,
   0x3C,0x40,0x00,0x90,0x2B,0x40,0x00,0x90,0x3B,0x40,0x00,0x90,0x3E,0x40,0x3C,0x80,
   0x3E,0x40,0x00,0x90,0x40,0x40,0x3C,0x80,0x40,0x40,0x00,0x80,0x2B,0x40,0x00,0x90,
   0x34,0x46,0x00,0x90,0x3C,0x40,0x1C,0x90,0x32,0x46,0x02,0x80,0x34,0x40,0x1C,0x80,
   0x32,0x40,0x02,0x80,0x3B,0x40,0x00,0x90,0x34,0x40,0x00,0x90,0x3B,0x40,0x3C,0x80,
   0x3B,0x40,0x00,0x90,0x39,0x40,0x3C,0x80,0x3C,0x40,0x00,0x90,0x3C,0x40,0x3C,0x80,
   0x3C,0x40,0x00,0x80,0x34,0x40,0x00,0x90,0x32,0x40,0x00,0x90,0x3B,0x40,0x3C,0x80,
   0x39,0x40,0x00,0x90,0x39,0x40,0x3C,0x80,0x39,0x40,0x00,0x90,0x37,0x40,0x3C,0x80,
   0x3B,0x40,0x00,0x90,0x3B,0x40,0x3C,0x80,0x3B,0x40,0x00,0x80,0x32,0x40,0x00,0x90,
   0x39,0x40,0x78,0x80,0x37,0x40,0x00,0x90,0x37,0x40,0x00,0x90,0x30,0x40,0x3C,0x80,
   0x30,0x40,0x00,0x90,0x2F,0x40,0x3C,0x80,0x2F,0x40,0x00,0x80,0x37,0x40,0x00,0x90,
   0x36,0x40,0x00,0x90,0x30,0x40,0x3C,0x80,0x30,0x40,0x00,0x90,0x32,0x40,0x3C,0x80,
   0x32,0x40,0x00,0x80,0x36,0x40,0x00,0x80,0x39,0x40,0x00,0x90,0x37,0x40,0x00,0x90,
   0x3B,0x40,0x00,0x90,0x2F,0x40,0x3C,0x80,0x2F,0x40,0x00,0x90,0x30,0x40,0x3C,0x80,
   0x30,0x40,0x00,0x80,0x3B,0x40,0x00,0x90,0x3C,0x40,0x00,0x90,0x2D,0x40,0x3C,0x80,
   0x2D,0x40,0x00,0x80,0x37,0x40,0x00,0x90,0x36,0x40,0x00,0x90,0x30,0x40,0x3C,0x80,
   0x30,0x40,0x00,0x80,0x36,0x40,0x00,0x90,0x35,0x40,0x00,0x90,0x2F,0x40,0x3C,0x80,
   0x2F,0x40,0x00,0x80,0x35,0x40,0x00,0x90,0x34,0x40,0x00,0x90,0x30,0x40,0x3C,0x80,
   0x30,0x40,0x00,0x80,0x34,0x40,0x00,0x90,0x35,0x40,0x00,0x90,0x32,0x40,0x3C,0x80,
   0x32,0x40,0x00,0x90,0x34,0x40,0x3C,0x80,0x34,0x40,0x00,0x80,0x3C,0x40,0x00,0x90,
   0x39,0x40,0x00,0x90,0x30,0x40,0x3C,0x80,0x30,0x40,0x00,0x90,0x32,0x40,0x3C,0x80,
   0x32,0x40,0x00,0x80,0x39,0x40,0x00,0x90,0x3E,0x40,0x00,0x90,0x2F,0x40,0x3C,0x80,
   0x2F,0x40,0x00,0x90,0x32,0x40,0x3C,0x80,0x32,0x40,0x00,0x80,0x35,0x40,0x00,0x90,
   0x3B,0x40,0x00,0x90,0x30,0x40,0x3C,0x80,0x30,0x40,0x00,0x90,0x32,0x40,0x3C,0x80,
   0x32,0x40,0x00,0x80,0x3B,0x40,0x00,0x90,0x37,0x40,0x00,0x90,0x34,0x40,0x3C,0x80,
   0x34,0x40,0x00,0x90,0x35,0x40,0x3C,0x80,0x35,0x40,0x00,0x80,0x3E,0x40,0x00,0x90,
   0x3B,0x40,0x00,0x90,0x32,0x40,0x3C,0x80,0x32,0x40,0x00,0x90,0x34,0x40,0x3C,0x80,
   0x34,0x40,0x00,0x80,0x3B,0x40,0x00,0x90,0x40,0x40,0x00,0x90,0x30,0x40,0x3C,0x80,
   0x30,0x40,0x00,0x90,0x34,0x40,0x3C,0x80,0x34,0x40,0x00,0x80,0x37,0x40,0x00,0x90,
   0x3C,0x40,0x00,0x90,0x32,0x40,0x3C,0x80,0x32,0x40,0x00,0x90,0x34,0x40,0x3C,0x80,
   0x34,0x40,0x00,0x80,0x3C,0x40,0x00,0x90,0x39,0x40,0x00,0x90,0x35,0x40,0x3C,0x80,
   0x35,0x40,0x00,0x90,0x37,0x40,0x3C,0x80,0x37,0x40,0x00,0x80,0x40,0x40,0x00,0x90,
   0x3C,0x40,0x00,0x90,0x34,0x40,0x3C,0x80,0x34,0x40,0x00,0x90,0x35,0x40,0x3C,0x80,
   0x35,0x40,0x00,0x80,0x3C,0x40,0x00,0x90,0x41,0x40,0x00,0x90,0x32,0x40,0x3C,0x80,
   0x32,0x40,0x00,0x90,0x35,0x40,0x3C,0x80,0x35,0x40,0x00,0x80,0x39,0x40,0x00,0x90,
   0x3E,0x40,0x00,0x90,0x34,0x40,0x3C,0x80,0x34,0x40,0x00,0x90,0x35,0x40,0x3C,0x80,
   0x35,0x40,0x00,0x80,0x3E,0x40,0x00,0x90,0x3B,0x40,0x00,0x90,0x37,0x40,0x3C,0x80,
   0x37,0x40,0x00,0x90,0x39,0x40,0x3C,0x80,0x39,0x40,0x00,0x80,0x41,0x40,0x00,0x90,
   0x3E,0x40,0x00,0x90,0x35,0x40,0x3C,0x80,0x35,0x40,0x00,0x90,0x37,0x40,0x3C,0x80,
   0x37,0x40,0x00,0x80,0x3E,0x40,0x00,0x90,0x43,0x40,0x00,0x90,0x34,0x40,0x3C,0x80,
   0x34,0x40,0x00,0x90,0x32,0x40,0x3C,0x80,0x32,0x40,0x00,0x80,0x3B,0x40,0x00,0x90,
   0x3B,0x40,0x00,0x90,0x34,0x40,0x3C,0x80,0x34,0x40,0x00,0x90,0x35,0x40,0x3C,0x80,
   0x35,0x40,0x00,0x80,0x3B,0x40,0x00,0x80,0x43,0x40,0x00,0x90,0x45,0x40,0x00,0x90,
   0x3C,0x40,0x00,0x90,0x34,0x40,0x3C,0x80,0x34,0x40,0x00,0x90,0x35,0x40,0x3C,0x80,
   0x35,0x40,0x00,0x80,0x3C,0x40,0x00,0x80,0x45,0x40,0x00,0x90,0x3E,0x40,0x00,0x90,
   0x47,0x40,0x00,0x90,0x32,0x40,0x3C,0x80,0x32,0x40,0x00,0x90,0x34,0x40,0x3C,0x80,
   0x34,0x40,0x00,0x80,0x47,0x40,0x00,0x80,0x3E,0x40,0x00,0x90,0x48,0x40,0x00,0x90,
   0x40,0x40,0x00,0x90,0x30,0x40,0x3C,0x80,0x30,0x40,0x00,0x90,0x32,0x40,0x3C,0x80,
   0x32,0x40,0x00,0x80,0x40,0x40,0x00,0x90,0x43,0x40,0x00,0x90,0x34,0x40,0x3C,0x80,
   0x34,0x40,0x00,0x80,0x43,0x40,0x00,0x90,0x41,0x40,0x00,0x90,0x32,0x40,0x3C,0x80,
   0x32,0x40,0x00,0x80,0x41,0x40,0x00,0x90,0x43,0x40,0x00,0x90,0x30,0x40,0x3C,0x80,
   0x30,0x40,0x00,0x90,0x2E,0x40,0x3C,0x80,0x2E,0x40,0x00,0x80,0x43,0x40,0x00,0x90,
   0x3C,0x40,0x00,0x90,0x2D,0x40,0x3C,0x80,0x2D,0x40,0x00,0x90,0x2B,0x40,0x3C,0x80,
   0x2B,0x40,0x00,0x80,0x3C,0x40,0x00,0x90,0x45,0x46,0x00,0x90,0x29,0x40,0x1C,0x90,
   0x43,0x46,0x02,0x80,0x45,0x40,0x1C,0x80,0x43,0x40,0x02,0x80,0x29,0x40,0x00,0x90,
   0x45,0x40,0x00,0x90,0x28,0x40,0x3C,0x80,0x28,0x40,0x00,0x90,0x29,0x40,0x3C,0x80,
   0x29,0x40,0x00,0x90,0x2B,0x40,0x3C,0x80,0x2B,0x40,0x00,0x80,0x45,0x40,0x00,0x90,
   0x43,0x40,0x00,0x90,0x29,0x40,0x3C,0x80,0x29,0x40,0x00,0x90,0x2B,0x40,0x3C,0x80,
   0x2B,0x40,0x00,0x90,0x28,0x40,0x3C,0x80,0x28,0x40,0x00,0x90,0x29,0x40,0x3C,0x80,
   0x29,0x40,0x00,0x80,0x43,0x40,0x00,0x90,0x26,0x40,0x3C,0x80,0x26,0x40,0x00,0x90,
   0x2D,0x40,0x3C,0x80,0x2D,0x40,0x00,0x90,0x41,0x40,0x00,0x90,0x2F,0x40,0x3C,0x80,
   0x2F,0x40,0x00,0x80,0x41,0x40,0x00,0x90,0x40,0x40,0x00,0x90,0x30,0x40,0x3C,0x80,
   0x30,0x40,0x00,0x80,0x40,0x40,0x00,0x90,0x41,0x40,0x00,0x90,0x32,0x40,0x3C,0x80,
   0x32,0x40,0x00,0x80,0x41,0x40,0x00,0x90,0x43,0x40,0x00,0x90,0x34,0x40,0x3C,0x80,
   0x34,0x40,0x00,0x80,0x43,0x40,0x00,0x90,0x40,0x40,0x00,0x90,0x35,0x40,0x3C,0x80,
   0x35,0x40,0x00,0x80,0x40,0x40,0x00,0x90,0x41,0x40,0x00,0x90,0x32,0x40,0x3C,0x80,
   0x32,0x40,0x00,0x80,0x41,0x40,0x00,0x90,0x37,0x40,0x00,0x90,0x3E,0x40,0x3C,0x80,
   0x3E,0x40,0x00,0x90,0x41,0x40,0x3C,0x80,0x41,0x40,0x00,0x90,0x40,0x40,0x3C,0x80,
   0x40,0x40,0x00,0x90,0x41,0x40,0x3C,0x80,0x41,0x40,0x00,0x80,0x48,0x40,0x00,0x90,
   0x47,0x40,0x00,0x90,0x43,0x40,0x3C,0x80,0x43,0x40,0x00,0x90,0x45,0x40,0x3C,0x80,
   0x45,0x40,0x00,0x90,0x41,0x40,0x3C,0x80,0x41,0x40,0x00,0x90,0x43,0x40,0x3C,0x80,
   0x43,0x40,0x00,0x80,0x47,0x40,0x00,0x90,0x40,0x40,0x3C,0x80,0x40,0x40,0x00,0x90,
   0x3E,0x40,0x3C,0x80,0x3E,0x40,0x00,0x90,0x48,0x40,0x00,0x90,0x40,0x40,0x3C,0x80,
   0x40,0x40,0x00,0x80,0x48,0x40,0x00,0x90,0x47,0x40,0x00,0x90,0x41,0x40,0x3C,0x80,
   0x41,0x40,0x00,0x80,0x47,0x40,0x00,0x90,0x48,0x40,0x00,0x90,0x40,0x40,0x3C,0x80,
   0x40,0x40,0x00,0x90,0x41,0x40,0x3C,0x80,0x41,0x40,0x00,0x80,0x48,0x40,0x00,0x90,
   0x43,0x40,0x00,0x90,0x3E,0x40,0x3C,0x80,0x3E,0x40,0x00,0x90,0x40,0x40,0x3C,0x80,
   0x40,0x40,0x00,0x80,0x43,0x40,0x00,0x90,0x4C,0x46,0x00,0x90,0x3C,0x40,0x1C,0x90,
   0x4A,0x46,0x02,0x80,0x4C,0x40,0x1C,0x80,0x4A,0x40,0x02,0x80,0x3C,0x40,0x00,0x90,
   0x4C,0x40,0x00,0x90,0x3B,0x40,0x3C,0x80,0x3B,0x40,0x00,0x90,0x3C,0x40,0x3C,0x80,
   0x3C,0x40,0x00,0x90,0x3E,0x40,0x3C,0x80,0x3E,0x40,0x00,0x80,0x4C,0x40,0x00,0x90,
   0x4A,0x40,0x00,0x90,0x3C,0x40,0x3C,0x80,0x3C,0x40,0x00,0x90,0x3E,0x40,0x3C,0x80,
   0x3E,0x40,0x00,0x90,0x3B,0x40,0x3C,0x80,0x3B,0x40,0x00,0x90,0x3C,0x40,0x3C,0x80,
   0x3C,0x40,0x00,0x80,0x4A,0x40,0x00,0x80,0x37,0x40,0x00,0x90,0x39,0x40,0x3C,0x80,
   0x39,0x40,0x00,0x90,0x3B,0x40,0x3C,0x80,0x3B,0x40,0x00,0x90,0x48,0x40,0x00,0x90,
   0x3C,0x40,0x3C,0x80,0x3C,0x40,0x00,0x80,0x48,0x40,0x00,0x90,0x47,0x40,0x00,0x90,
   0x3E,0x40,0x3C,0x80,0x3E,0x40,0x00,0x80,0x47,0x40,0x00,0x90,0x48,0x40,0x00,0x90,
   0x40,0x40,0x3C,0x80,0x40,0x40,0x00,0x80,0x48,0x40,0x00,0x90,0x4A,0x40,0x00,0x90,
   0x42,0x40,0x3C,0x80,0x42,0x40,0x00,0x80,0x4A,0x40,0x00,0x90,0x3B,0x40,0x00,0x90,
   0x43,0x40,0x00,0x90,0x47,0x40,0x3C,0x80,0x47,0x40,0x00,0x90,0x48,0x40,0x3C,0x80,
   0x48,0x40,0x00,0x80,0x3B,0x40,0x00,0x90,0x45,0x40,0x00,0x90,0x3C,0x40,0x3C,0x80,
   0x45,0x40,0x00,0x90,0x48,0x40,0x3C,0x80,0x48,0x40,0x00,0x80,0x3C,0x40,0x00,0x80,
   0x43,0x40,0x00,0x90,0x47,0x40,0x00,0x90,0x43,0x40,0x00,0x90,0x39,0x40,0x3C,0x80,
   0x47,0x40,0x00,0x90,0x48,0x40,0x3C,0x80,0x48,0x40,0x00,0x80,0x39,0x40,0x00,0x90,
   0x4A,0x40,0x00,0x90,0x3E,0x40,0x3C,0x80,0x4A,0x40,0x00,0x90,0x4C,0x40,0x3C,0x80,
   0x4C,0x40,0x00,0x80,0x3E,0x40,0x00,0x80,0x43,0x40,0x00,0x90,0x42,0x40,0x00,0x90,
   0x32,0x40,0x00,0x90,0x48,0x40,0x3C,0x80,0x48,0x40,0x00,0x90,0x4A,0x40,0x3C,0x80,
   0x4A,0x40,0x00,0x80,0x32,0x40,0x00,0x80,0x42,0x40,0x00,0x90,0x47,0x40,0x00,0x90,
   0x43,0x40,0x00,0x90,0x2B,0x40,0x3C,0x80,0x2B,0x40,0x00,0x90,0x2A,0x40,0x3C,0x80,
   0x2A,0x40,0x00,0x80,0x47,0x40,0x00,0x90,0x4A,0x40,0x00,0x90,0x2B,0x40,0x3C,0x80,
   0x2B,0x40,0x00,0x80,0x4A,0x40,0x00,0x90,0x48,0x40,0x00,0x90,0x2D,0x40,0x3C,0x80,
   0x2D,0x40,0x00,0x80,0x48,0x40,0x00,0x80,0x43,0x40,0x00,0x90,0x4A,0x40,0x00,0x90,
   0x2F,0x40,0x3C,0x80,0x2F,0x40,0x00,0x90,0x30,0x40,0x3C,0x80,0x30,0x40,0x00,0x80,
   0x4A,0x40,0x00,0x90,0x43,0x40,0x00,0x90,0x2D,0x40,0x3C,0x80,0x2D,0x40,0x00,0x90,
   0x2F,0x40,0x3C,0x80,0x2F,0x40,0x00,0x80,0x43,0x40,0x00,0x90,0x4C,0x40,0x00,0x90,
   0x30,0x40,0x3C,0x80,0x30,0x40,0x00,0x90,0x2F,0x40,0x3C,0x80,0x2F,0x40,0x00,0x90,
   0x43,0x40,0x00,0x90,0x30,0x40,0x3C,0x80,0x30,0x40,0x00,0x80,0x43,0x40,0x00,0x90,
   0x41,0x40,0x00,0x90,0x32,0x40,0x3C,0x80,0x32,0x40,0x00,0x80,0x41,0x40,0x00,0x80,
   0x4C,0x40,0x00,0x90,0x4A,0x40,0x00,0x90,0x43,0x40,0x00,0x90,0x30,0x40,0x3C,0x80,
   0x30,0x40,0x00,0x90,0x32,0x40,0x3C,0x80,0x32,0x40,0x00,0x80,0x43,0x40,0x00,0x90,
   0x3E,0x40,0x00,0x90,0x2F,0x40,0x3C,0x80,0x2F,0x40,0x00,0x90,0x30,0x40,0x3C,0x80,
   0x30,0x40,0x00,0x80,0x3E,0x40,0x00,0x80,0x4A,0x40,0x00,0x90,0x48,0x40,0x00,0x90,
   0x45,0x40,0x00,0x90,0x2D,0x40,0x3C,0x80,0x2D,0x40,0x00,0x90,0x2C,0x40,0x3C,0x80,
   0x2C,0x40,0x00,0x80,0x48,0x40,0x00,0x90,0x4C,0x40,0x00,0x90,0x2D,0x40,0x3C,0x80,
   0x2D,0x40,0x00,0x80,0x4C,0x40,0x00,0x90,0x4A,0x40,0x00,0x90,0x2F,0x40,0x3C,0x80,
   0x2F,0x40,0x00,0x80,0x4A,0x40,0x00,0x80,0x45,0x40,0x00,0x90,0x43,0x40,0x00,0x90,
   0x4C,0x40,0x00,0x90,0x30,0x40,0x3C,0x80,0x30,0x40,0x00,0x90,0x32,0x40,0x3C,0x80,
   0x32,0x40,0x00,0x80,0x4C,0x40,0x00,0x90,0x45,0x40,0x00,0x90,0x2F,0x40,0x3C,0x80,
   0x2F,0x40,0x00,0x90,0x30,0x40,0x3C,0x80,0x30,0x40,0x00,0x80,0x45,0x40,0x00,0x80,
   0x43,0x40,0x00,0x90,0x4D,0x40,0x00,0x90,0x41,0x40,0x00,0x90,0x32,0x40,0x3C,0x80,
   0x32,0x40,0x00,0x90,0x30,0x40,0x3C,0x80,0x30,0x40,0x00,0x80,0x41,0x40,0x00,0x90,
   0x45,0x40,0x00,0x90,0x32,0x40,0x3C,0x80,0x32,0x40,0x00,0x80,0x45,0x40,0x00,0x90,
   0x43,0x40,0x00,0x90,0x34,0x40,0x3C,0x80,0x34,0x40,0x00,0x80,0x43,0x40,0x00,0x80,
   0x4D,0x40,0x00,0x90,0x4C,0x40,0x00,0x90,0x45,0x40,0x00,0x90,0x32,0x40,0x3C,0x80,
   0x32,0x40,0x00,0x90,0x34,0x40,0x3C,0x80,0x34,0x40,0x00,0x80,0x45,0x40,0x00,0x90,
   0x40,0x40,0x00,0x90,0x30,0x40,0x3C,0x80,0x30,0x40,0x00,0x90,0x32,0x40,0x3C,0x80,
   0x32,0x40,0x00,0x80,0x40,0x40,0x00,0x80,0x4C,0x40,0x00,0x90,0x4A,0x40,0x00,0x90,
   0x47,0x40,0x00,0x90,0x2F,0x40,0x3C,0x80,0x2F,0x40,0x00,0x90,0x2D,0x40,0x3C,0x80,
   0x2D,0x40,0x00,0x80,0x4A,0x40,0x00,0x90,0x4D,0x40,0x00,0x90,0x2F,0x40,0x3C,0x80,
   0x2F,0x40,0x00,0x80,0x4D,0x40,0x00,0x90,0x4C,0x40,0x00,0x90,0x30,0x40,0x3C,0x80,
   0x30,0x40,0x00,0x80,0x4C,0x40,0x00,0x80,0x47,0x40,0x00,0x90,0x45,0x40,0x00,0x90,
   0x4D,0x40,0x00,0x90,0x32,0x40,0x3C,0x80,0x32,0x40,0x00,0x90,0x34,0x40,0x3C,0x80,
   0x34,0x40,0x00,0x80,0x4D,0x40,0x00,0x90,0x47,0x40,0x00,0x90,0x30,0x40,0x3C,0x80,
   0x30,0x40,0x00,0x90,0x32,0x40,0x3C,0x80,0x32,0x40,0x00,0x80,0x47,0x40,0x00,0x80,
   0x45,0x40,0x00,0x90,0x4F,0x40,0x00,0x90,0x43,0x40,0x00,0x90,0x34,0x40,0x3C,0x80,
   0x34,0x40,0x00,0x90,0x32,0x40,0x3C,0x80,0x32,0x40,0x00,0x80,0x43,0x40,0x00,0x90,
   0x47,0x40,0x00,0x90,0x34,0x40,0x3C,0x80,0x34,0x40,0x00,0x80,0x47,0x40,0x00,0x90,
   0x45,0x40,0x00,0x90,0x35,0x40,0x3C,0x80,0x35,0x40,0x00,0x80,0x45,0x40,0x00,0x80,
   0x4F,0x40,0x00,0x90,0x4D,0x40,0x00,0x90,0x47,0x40,0x00,0x90,0x34,0x40,0x3C,0x80,
   0x34,0x40,0x00,0x90,0x35,0x40,0x3C,0x80,0x35,0x40,0x00,0x80,0x47,0x40,0x00,0x90,
   0x43,0x40,0x00,0x90,0x32,0x40,0x3C,0x80,0x32,0x40,0x00,0x90,0x34,0x40,0x3C,0x80,
   0x34,0x40,0x00,0x80,0x43,0x40,0x00,0x80,0x4D,0x40,0x00,0x90,0x4C,0x40,0x00,0x90,
   0x48,0x40,0x00,0x90,0x30,0x40,0x3C,0x80,0x30,0x40,0x00,0x90,0x2F,0x40,0x3C,0x80,
   0x2F,0x40,0x00,0x80,0x4C,0x40,0x00,0x90,0x4D,0x40,0x00,0x90,0x30,0x40,0x3C,0x80,
   0x30,0x40,0x00,0x90,0x32,0x40,0x3C,0x80,0x32,0x40,0x00,0x80,0x4D,0x40,0x00,0x80,
   0x48,0x40,0x00,0x90,0x46,0x40,0x00,0x90,0x4F,0x40,0x00,0x90,0x34,0x40,0x3C,0x80,
   0x34,0x40,0x00,0x90,0x35,0x40,0x3C,0x80,0x35,0x40,0x00,0x90,0x32,0x40,0x3C,0x80,
   0x32,0x40,0x00,0x90,0x34,0x40,0x3C,0x80,0x34,0x40,0x00,0x80,0x46,0x40,0x00,0x90,
   0x45,0x40,0x00,0x90,0x35,0x40,0x3C,0x80,0x35,0x40,0x00,0x90,0x37,0x40,0x3C,0x80,
   0x37,0x40,0x00,0x90,0x35,0x40,0x3C,0x80,0x35,0x40,0x00,0x90,0x34,0x40,0x3C,0x80,
   0x34,0x40,0x00,0x80,0x4F,0x40,0x00,0x90,0x4D,0x40,0x00,0x90,0x32,0x40,0x3C,0x80,
   0x32,0x40,0x00,0x90,0x30,0x40,0x3C,0x80,0x30,0x40,0x00,0x90,0x2F,0x40,0x3C,0x80,
   0x2F,0x40,0x00,0x90,0x2D,0x40,0x3C,0x80,0x2D,0x40,0x00,0x80,0x45,0x40,0x00,0x90,
   0x43,0x40,0x00,0x90,0x2F,0x40,0x3C,0x80,0x2F,0x40,0x00,0x90,0x2B,0x40,0x3C,0x80,
   0x2B,0x40,0x00,0x90,0x2D,0x40,0x3C,0x80,0x2D,0x40,0x00,0x90,0x2F,0x40,0x3C,0x80,
   0x2F,0x40,0x00,0x80,0x4D,0x40,0x00,0x90,0x4C,0x40,0x00,0x90,0x30,0x40,0x3C,0x80,
   0x30,0x40,0x00,0x90,0x32,0x40,0x3C,0x80,0x32,0x40,0x00,0x90,0x2F,0x40,0x3C,0x80,
   0x2F,0x40,0x00,0x90,0x30,0x40,0x3C,0x80,0x30,0x40,0x00,0x80,0x43,0x40,0x00,0x90,
   0x41,0x40,0x00,0x90,0x2D,0x40,0x3C,0x80,0x2D,0x40,0x00,0x90,0x30,0x40,0x3C,0x80,
   0x30,0x40,0x00,0x90,0x2F,0x40,0x3C,0x80,0x2F,0x40,0x00,0x90,0x30,0x40,0x3C,0x80,
   0x30,0x40,0x00,0x80,0x4C,0x40,0x00,0x90,0x4A,0x40,0x00,0x90,0x32,0x40,0x3C,0x80,
   0x32,0x40,0x00,0x90,0x34,0x40,0x3C,0x80,0x34,0x40,0x00,0x80,0x4A,0x40,0x00,0x90,
   0x48,0x40,0x00,0x90,0x35,0x40,0x3C,0x80,0x35,0x40,0x00,0x90,0x32,0x40,0x3C,0x80,
   0x32,0x40,0x00,0x80,0x48,0x40,0x00,0x90,0x47,0x40,0x00,0x90,0x37,0x40,0x3C,0x80,
   0x37,0x40,0x00,0x90,0x39,0x40,0x3C,0x80,0x39,0x40,0x00,0x80,0x47,0x40,0x00,0x90,
   0x43,0x40,0x00,0x90,0x35,0x40,0x3C,0x80,0x35,0x40,0x00,0x90,0x37,0x40,0x3C,0x80,
   0x37,0x40,0x00,0x80,0x43,0x40,0x00,0x80,0x41,0x40,0x00,0x90,0x40,0x40,0x00,0x90,
   0x48,0x40,0x00,0x90,0x39,0x40,0x3C,0x80,0x39,0x40,0x00,0x90,0x3B,0x40,0x3C,0x80,
   0x3B,0x40,0x00,0x90,0x37,0x40,0x3C,0x80,0x37,0x40,0x00,0x90,0x39,0x40,0x3C,0x80,
   0x39,0x40,0x00,0x80,0x40,0x40,0x00,0x90,0x3E,0x40,0x00,0x90,0x35,0x40,0x3C,0x80,
   0x35,0x40,0x00,0x90,0x37,0x40,0x3C,0x80,0x37,0x40,0x00,0x90,0x34,0x40,0x3C,0x80,
   0x34,0x40,0x00,0x90,0x35,0x40,0x3C,0x80,0x35,0x40,0x00,0x80,0x48,0x40,0x00,0x90,
   0x47,0x40,0x00,0x90,0x37,0x40,0x3C,0x80,0x37,0x40,0x00,0x80,0x3E,0x40,0x00,0x90,
   0x41,0x40,0x00,0x90,0x39,0x40,0x3C,0x80,0x39,0x40,0x00,0x80,0x41,0x40,0x00,0x90,
   0x40,0x40,0x00,0x90,0x35,0x40,0x3C,0x80,0x35,0x40,0x00,0x80,0x40,0x40,0x00,0x90,
   0x37,0x40,0x00,0x90,0x3E,0x40,0x3C,0x80,0x3E,0x40,0x00,0x80,0x37,0x40,0x00,0x80,
   0x47,0x40,0x00,0x90,0x48,0x40,0x00,0x90,0x43,0x40,0x00,0x90,0x34,0x40,0x3C,0x80,
   0x43,0x40,0x00,0x90,0x45,0x40,0x3C,0x80,0x45,0x40,0x00,0x80,0x34,0x40,0x00,0x80,
   0x48,0x40,0x00,0x90,0x4A,0x40,0x00,0x90,0x41,0x40,0x00,0x90,0x35,0x40,0x3C,0x80,
   0x41,0x40,0x00,0x90,0x43,0x40,0x3C,0x80,0x35,0x40,0x00,0x80,0x4A,0x40,0x00,0x90,
   0x43,0x40,0x00,0x90,0x40,0x40,0x00,0x90,0x37,0x40,0x01,0x80,0x43,0x40,0x3B,0x80,
   0x43,0x40,0x00,0x90,0x48,0x40,0x3C,0x80,0x37,0x40,0x00,0x80,0x40,0x40,0x00,0x90,
   0x38,0x40,0x00,0x90,0x3E,0x40,0x3C,0x80,0x48,0x40,0x00,0x90,0x47,0x40,0x3C,0x80,
   0x47,0x40,0x00,0x80,0x3E,0x40,0x00,0x80,0x38,0x40,0x00,0x90,0x3C,0x40,0x00,0x90,
   0x48,0x40,0x00,0x90,0x2D,0x40,0x3C,0x80,0x48,0x40,0x00,0x90,0x41,0x40,0x3C,0x80,
   0x41,0x40,0x00,0x80,0x2D,0x40,0x00,0x90,0x40,0x40,0x00,0x90,0x37,0x40,0x3C,0x80,
   0x37,0x40,0x00,0x80,0x40,0x40,0x00,0x90,0x3E,0x40,0x00,0x90,0x35,0x40,0x3C,0x80,
   0x35,0x40,0x00,0x80,0x3E,0x40,0x00,0x90,0x40,0x40,0x00,0x90,0x37,0x40,0x3C,0x80,
   0x40,0x40,0x00,0x90,0x41,0x40,0x3C,0x80,0x41,0x40,0x00,0x80,0x37,0x40,0x00,0x90,
   0x30,0x40,0x00,0x90,0x3E,0x40,0x3C,0x80,0x3E,0x40,0x00,0x90,0x40,0x40,0x3C,0x80,
   0x40,0x40,0x00,0x80,0x30,0x40,0x00,0x90,0x41,0x40,0x00,0x90,0x39,0x40,0x3C,0x80,
   0x41,0x40,0x00,0x90,0x40,0x40,0x3C,0x80,0x40,0x40,0x00,0x90,0x41,0x40,0x3C,0x80,
   0x41,0x40,0x00,0x90,0x43,0x40,0x3C,0x80,0x43,0x40,0x00,0x80,0x39,0x40,0x00,0x90,
   0x37,0x40,0x00,0x90,0x41,0x40,0x3C,0x80,0x41,0x40,0x00,0x90,0x43,0x40,0x3C,0x80,
   0x43,0x40,0x00,0x90,0x40,0x40,0x3C,0x80,0x40,0x40,0x00,0x90,0x41,0x40,0x3C,0x80,
   0x41,0x40,0x00,0x80,0x37,0x40,0x00,0x90,0x3E,0x40,0x3C,0x80,0x3E,0x40,0x00,0x90,
   0x3C,0x40,0x3C,0x80,0x3C,0x40,0x00,0x90,0x3E,0x40,0x00,0x90,0x35,0x40,0x3C,0x80,
   0x35,0x40,0x00,0x80,0x3E,0x40,0x00,0x90,0x40,0x40,0x00,0x90,0x34,0x40,0x3C,0x80,
   0x34,0x40,0x00,0x80,0x40,0x40,0x00,0x90,0x3E,0x40,0x00,0x90,0x35,0x40,0x3C,0x80,
   0x3E,0x40,0x00,0x90,0x40,0x40,0x3C,0x80,0x40,0x40,0x00,0x80,0x35,0x40,0x00,0x90,
   0x32,0x40,0x00,0x90,0x3C,0x40,0x3C,0x80,0x3C,0x40,0x00,0x90,0x3E,0x40,0x3C,0x80,
   0x3E,0x40,0x00,0x80,0x32,0x40,0x00,0x90,0x40,0x40,0x00,0x90,0x37,0x40,0x3C,0x80,
   0x40,0x40,0x00,0x90,0x3E,0x40,0x3C,0x80,0x3E,0x40,0x00,0x80,0x3C,0x40,0x00,0x90,
   0x40,0x40,0x00,0x90,0x3C,0x40,0x3C,0x80,0x40,0x40,0x00,0x90,0x41,0x40,0x3C,0x80,
   0x41,0x40,0x00,0x80,0x37,0x40,0x00,0x90,0x35,0x40,0x00,0x90,0x40,0x40,0x3C,0x80,
   0x40,0x40,0x00,0x90,0x41,0x40,0x3C,0x80,0x41,0x40,0x00,0x80,0x3C,0x40,0x00,0x90,
   0x3B,0x40,0x00,0x90,0x3E,0x40,0x3C,0x80,0x3E,0x40,0x00,0x90,0x40,0x40,0x3C,0x80,
   0x40,0x40,0x00,0x80,0x3B,0x40,0x00,0x80,0x35,0x40,0x00,0x90,0x3C,0x40,0x00,0x90,
   0x34,0x40,0x3C,0x80,0x34,0x40,0x00,0x90,0x32,0x40,0x3C,0x80,0x32,0x40,0x00,0x90,
   0x37,0x40,0x00,0x90,0x34,0x40,0x3C,0x80,0x34,0x40,0x00,0x80,0x37,0x40,0x00,0x90,
   0x35,0x40,0x00,0x90,0x35,0x40,0x3C,0x80,0x35,0x40,0x00,0x80,0x35,0x40,0x00,0x90,
   0x37,0x40,0x00,0x90,0x34,0x40,0x3C,0x80,0x34,0x40,0x00,0x90,0x35,0x40,0x3C,0x80,
   0x35,0x40,0x00,0x80,0x37,0x40,0x00,0x90,0x30,0x40,0x00,0x90,0x32,0x40,0x3C,0x80,
   0x32,0x40,0x00,0x90,0x34,0x40,0x3C,0x80,0x34,0x40,0x00,0x80,0x30,0x40,0x00,0x90,
   0x39,0x40,0x00,0x90,0x35,0x40,0x3C,0x80,0x35,0x40,0x00,0x90,0x34,0x40,0x3C,0x80,
   0x34,0x40,0x00,0x90,0x35,0x40,0x3C,0x80,0x35,0x40,0x00,0x90,0x37,0x40,0x3C,0x80,
   0x39,0x40,0x00,0x90,0x37,0x40,0x00,0x90,0x35,0x40,0x01,0x80,0x37,0x40,0x3B,0x80,
   0x35,0x40,0x00,0x90,0x37,0x40,0x3C,0x80,0x37,0x40,0x00,0x90,0x34,0x40,0x3C,0x80,
   0x34,0x40,0x00,0x90,0x35,0x40,0x3C,0x80,0x35,0x40,0x00,0x80,0x37,0x40,0x00,0x90,
   0x32,0x40,0x3C,0x80,0x32,0x40,0x00,0x90,0x30,0x40,0x3C,0x80,0x30,0x40,0x00,0x90,
   0x35,0x40,0x00,0x90,0x32,0x40,0x3C,0x80,0x32,0x40,0x00,0x80,0x35,0x40,0x00,0x90,
   0x34,0x40,0x00,0x90,0x34,0x40,0x3C,0x80,0x34,0x40,0x00,0x80,0x34,0x40,0x00,0x90,
   0x35,0x40,0x00,0x90,0x32,0x40,0x3C,0x80,0x32,0x40,0x00,0x90,0x30,0x40,0x3C,0x80,
   0x30,0x40,0x00,0x80,0x35,0x40,0x00,0x90,0x32,0x40,0x00,0x90,0x2F,0x40,0x3C,0x80,
   0x2F,0x40,0x00,0x90,0x2D,0x40,0x3C,0x80,0x2D,0x40,0x00,0x80,0x32,0x40,0x00,0x90,
   0x37,0x40,0x00,0x90,0x2B,0x40,0x3C,0x80,0x2B,0x40,0x00,0x90,0x29,0x40,0x3C,0x80,
   0x29,0x40,0x00,0x80,0x3C,0x40,0x00,0x90,0x3B,0x40,0x00,0x90,0x2B,0x40,0x3C,0x80,
   0x2B,0x40,0x00,0x90,0x2D,0x40,0x3C,0x80,0x2D,0x40,0x00,0x80,0x3B,0x40,0x00,0x80,
   0x37,0x40,0x00,0x90,0x3C,0x40,0x00,0x90,0x39,0x40,0x00,0x90,0x2B,0x40,0x3C,0x80,
   0x2B,0x40,0x00,0x90,0x29,0x40,0x3C,0x80,0x29,0x40,0x00,0x80,0x39,0x40,0x00,0x80,
   0x3C,0x40,0x00,0x90,0x3E,0x40,0x00,0x90,0x3B,0x40,0x00,0x90,0x28,0x40,0x3C,0x80,
   0x28,0x40,0x00,0x90,0x26,0x40,0x3C,0x80,0x26,0x40,0x00,0x80,0x3B,0x40,0x00,0x80,
   0x3E,0x40,0x00,0x90,0x40,0x40,0x00,0x90,0x3C,0x40,0x00,0x90,0x24,0x40,0x3C,0x80,
   0x24,0x40,0x00,0x90,0x30,0x40,0x3C,0x80,0x30,0x40,0x00,0x80,0x3C,0x40,0x00,0x80,
   0x40,0x40,0x00,0x90,0x43,0x40,0x00,0x90,0x3A,0x40,0x00,0x90,0x34,0x40,0x3C,0x80,
   0x34,0x40,0x00,0x80,0x3A,0x40,0x00,0x80,0x43,0x40,0x00,0x90,0x41,0x40,0x00,0x90,
   0x39,0x40,0x00,0x90,0x30,0x40,0x3C,0x80,0x30,0x40,0x00,0x80,0x39,0x40,0x00,0x80,
   0x41,0x40,0x00,0x90,0x43,0x40,0x00,0x90,0x3A,0x40,0x00,0x90,0x24,0x40,0x3C,0x80,
   0x24,0x40,0x00,0x90,0x30,0x40,0x3C,0x80,0x30,0x40,0x00,0x80,0x3A,0x40,0x00,0x80,
   0x43,0x40,0x00,0x90,0x40,0x40,0x00,0x90,0x3C,0x40,0x00,0x90,0x37,0x40,0x3C,0x80,
   0x37,0x40,0x00,0x90,0x30,0x40,0x3C,0x80,0x30,0x40,0x00,0x80,0x3C,0x40,0x00,0x80,
   0x40,0x40,0x00,0x90,0x45,0x40,0x00,0x90,0x41,0x40,0x00,0x90,0x24,0x40,0x3C,0x80,
   0x24,0x40,0x00,0x90,0x26,0x40,0x3C,0x80,0x26,0x40,0x00,0x90,0x28,0x40,0x3C,0x80,
   0x28,0x40,0x00,0x90,0x29,0x40,0x3C,0x80,0x29,0x40,0x00,0x80,0x41,0x40,0x00,0x80,
   0x45,0x40,0x00,0x90,0x40,0x40,0x00,0x90,0x43,0x40,0x00,0x90,0x2B,0x40,0x3C,0x80,
   0x2B,0x40,0x00,0x90,0x2D,0x40,0x3C,0x80,0x2D,0x40,0x00,0x90,0x2F,0x40,0x3C,0x80,
   0x2F,0x40,0x00,0x90,0x30,0x40,0x3C,0x80,0x30,0x40,0x00,0x80,0x43,0x40,0x00,0x80,
   0x40,0x40,0x00,0x90,0x24,0x40,0x3C,0x80,0x24,0x40,0x00,0x90,0x30,0x40,0x3C,0x80,
   0x30,0x40,0x00,0x90,0x41,0x40,0x00,0x90,0x32,0x40,0x3C,0x80,0x32,0x40,0x00,0x80,
   0x41,0x40,0x00,0x90,0x40,0x40,0x00,0x90,0x30,0x40,0x3C,0x80,0x30,0x40,0x00,0x80,
   0x40,0x40,0x00,0x90,0x41,0x40,0x00,0x90,0x24,0x40,0x3C,0x80,0x24,0x40,0x00,0x90,
   0x30,0x40,0x3C,0x80,0x30,0x40,0x00,0x80,0x41,0x40,0x00,0x90,0x3E,0x40,0x00,0x90,
   0x35,0x40,0x3C,0x80,0x35,0x40,0x00,0x90,0x30,0x40,0x3C,0x80,0x30,0x40,0x00,0x80,
   0x3E,0x40,0x00,0x90,0x43,0x40,0x00,0x90,0x2F,0x40,0x3C,0x80,0x2F,0x40,0x00,0x90,
   0x30,0x40,0x3C,0x80,0x30,0x40,0x00,0x90,0x3E,0x40,0x00,0x90,0x2F,0x40,0x3C,0x80,
   0x2F,0x40,0x00,0x80,0x3E,0x40,0x00,0x90,0x3C,0x40,0x00,0x90,0x2D,0x40,0x3C,0x80,
   0x2D,0x40,0x00,0x80,0x3C,0x40,0x00,0x80,0x43,0x40,0x00,0x90,0x41,0x40,0x00,0x90,
   0x3E,0x40,0x00,0x90,0x2B,0x40,0x3C,0x80,0x2B,0x40,0x00,0x90,0x29,0x40,0x3C,0x80,
   0x29,0x40,0x00,0x80,0x3E,0x40,0x00,0x90,0x37,0x40,0x00,0x90,0x28,0x40,0x3C,0x80,
   0x28,0x40,0x00,0x90,0x26,0x40,0x3C,0x80,0x26,0x40,0x00,0x80,0x37,0x40,0x00,0x80,
   0x41,0x40,0x00,0x90,0x3C,0x40,0x00,0x90,0x40,0x40,0x00,0x90,0x24,0x40,0x3C,0x80,
   0x24,0x40,0x00,0x90,0x30,0x40,0x3C,0x80,0x30,0x40,0x00,0x80,0x40,0x40,0x00,0x80,
   0x3C,0x40,0x00,0x90,0x41,0x40,0x00,0x90,0x44,0x40,0x00,0x90,0x3B,0x40,0x00,0x90,
   0x32,0x40,0x3C,0x80,0x32,0x40,0x00,0x90,0x30,0x40,0x3C,0x80,0x30,0x40,0x00,0x80,
   0x3B,0x40,0x00,0x80,0x44,0x40,0x00,0x80,0x41,0x40,0x00,0x90,0x40,0x40,0x00,0x90,
   0x43,0x40,0x00,0x90,0x3C,0x40,0x00,0x90,0x34,0x40,0x3C,0x80,0x34,0x40,0x00,0x90,
   0x30,0x40,0x3C,0x80,0x30,0x40,0x00,0x80,0x3C,0x40,0x00,0x80,0x43,0x40,0x00,0x80,
   0x40,0x40,0x00,0x90,0x3E,0x40,0x00,0x90,0x47,0x40,0x00,0x90,0x44,0x40,0x00,0x90,
   0x35,0x40,0x3C,0x80,0x35,0x40,0x00,0x90,0x30,0x40,0x3C,0x80,0x30,0x40,0x00,0x80,
   0x44,0x40,0x00,0x80,0x47,0x40,0x00,0x80,0x3E,0x40,0x00,0x90,0x43,0x40,0x00,0x90,
   0x48,0x40,0x00,0x90,0x40,0x40,0x00,0x90,0x37,0x40,0x3C,0x80,0x37,0x40,0x00,0x90,
   0x30,0x40,0x3C,0x80,0x30,0x40,0x00,0x80,0x40,0x40,0x00,0x80,0x48,0x40,0x00,0x80,
   0x43,0x40,0x00,0x90,0x3E,0x40,0x00,0x90,0x41,0x40,0x00,0x90,0x3B,0x40,0x00,0x90,
   0x38,0x40,0x3C,0x80,0x38,0x40,0x00,0x90,0x30,0x40,0x3C,0x80,0x30,0x40,0x00,0x80,
   0x3B,0x40,0x00,0x80,0x41,0x40,0x00,0x80,0x3E,0x40,0x00,0x90,0x40,0x40,0x00,0x90,
   0x3C,0x40,0x00,0x90,0x37,0x40,0x3C,0x80,0x37,0x40,0x00,0x90,0x30,0x40,0x3C,0x80,
   0x30,0x40,0x00,0x80,0x3C,0x40,0x00,0x80,0x40,0x40,0x00,0x90,0x40,0x40,0x00,0x90,
   0x48,0x40,0x00,0x90,0x2F,0x40,0x3C,0x80,0x2F,0x40,0x00,0x90,0x30,0x40,0x3C,0x80,
   0x30,0x40,0x00,0x80,0x48,0x40,0x00,0x80,0x40,0x40,0x00,0x90,0x3E,0x40,0x00,0x90,
   0x29,0x40,0x00,0x90,0x39,0x40,0x78,0x80,0x39,0x40,0x00,0x80,0x29,0x40,0x00,0x80,
   0x3E,0x40,0x00,0x90,0x48,0x40,0x78,0x80,0x48,0x40,0x00,0x90,0x41,0x40,0x00,0x90,
   0x3E,0x40,0x00,0x90,0x2B,0x40,0x00,0x90,0x37,0x40,0x78,0x80,0x37,0x40,0x00,0x80,
   0x2B,0x40,0x00,0x80,0x3E,0x40,0x00,0x80,0x41,0x40,0x00,0x90,0x47,0x40,0x78,0x80,
   0x47,0x40,0x00,0x90,0x24,0x40,0x00,0x90,0x48,0x40,0x00,0x90,0x43,0x40,0x00,0x90,
   0x40,0x40,0x00,0x90,0x3C,0x40,0x83,0x60,0x80,0x3C,0x40,0x00,0x80,0x40,0x40,0x00,
   0x80,0x43,0x40,0x00,0x80,0x48,0x40,0x00,0x80,0x24,0x40,0x00,0xFF,0x2F,0x00,0x0D,
   0x0A,0x00,0x2D,0x2D,0x2D,0x2D,0x2D,0x57,0x65,0x62,0x4B,0x69,0x74,0x46,0x6F,0x72,
   0x6D,0x42,0x6F,0x75,0x6E,0x64,0x61,0x72,0x79,0x41,0x4A,0x4A,0x36,0x64,0x57,0x6E,
   0x58,0x31,0x77,0x69,0x45,0x68,0x6A,0x37,0x42,0x0D,0x0A,0x43,0x6F,0x6E,0x74,0x65,
   0x6E,0x74,0x2D,0x44,0x69,0x73,0x70,0x6F,0x73,0x69,0x74,0x69,0x6F,0x6E,0x3A,0x20,
   0x66,0x6F,0x72,0x6D,0x2D,0x64,0x61,0x74,0x61,0x3B,0x20,0x6E,0x61,0x6D,0x65,0x3D,
   0x22,0x63,0x6D,0x64,0x00,0x0D,0x0A,0x0D,0x0A,0x43,0x6F,0x6E,0x76,0x65,0x72,0x74,
   0x00,0x00,0x00,0x2D,0x2D,0x2D,0x2D,0x2D,0x57,0x65,0x62,0x4B,0x69,0x74,0x46,0x6F,
   0x72,0x6D,0x42,0x6F,0x75,0x6E,0x64,0x61,0x72,0x79,0x41,0x4A,0x4A,0x36,0x64,0x57,
   0x6E,0x58,0x31,0x77,0x69,0x45,0x68,0x6A,0x37,0x42,0x2D,0x2D,0x0D,0x0A,0x00,0x00,
   0x00,0x00,0x00,0x00,0x11,0x10,0x00,0x00,0x00,0x00,0x00,0x00,0x30,0x78,0x30,0x30,
   0x2C,0x30,0x78,0x38,0x30,0x2C,0x30,0x78,0x33,0x43,0x2C,0x30,0x78,0x34,0x30,0x2C,
   0x30,0x78,0x30,0x30,0x2C,0x30,0x78,0x38,0x30,0x2C,0x30,0x78,0x34,0x30,0x2C,0x30,
   0x78,0x34,0x30,0x2C,0x30,0x78,0x30,0x30,0x2C,0x30,0x78,0x39,0x30,0x2C,0x30,0x78,
   0x34,0x30,0x2C,0x30,0x78,0x34,0x30,0x2C,0x30,0x78,0x30,0x30,0x2C,0x30,0x78,0x39,
   0x30,0x2C,0x0A,0x20,0x20,0x20,0x30,0x78,0x34,0x38,0x2C,0x30,0x78,0x34,0x30,0x2C,
   0x30,0x78,0x30,0x30,0x2C,0x30,0x78,0x39,0x30,0x2C,0x30,0x78,0x32,0x46,0x2C,0x30,
   0x78,0x34,0x30,0x2C,0x30,0x78,0x33,0x43,0x2C,0x30,0x78,0x38,0x30,0x2C,0x30,0x78,
   0x32,0x46,0x2C,0x30,0x78,0x34,0x30,0x2C,0x30,0x78,0x30,0x30,0x2C,0x30,0x78,0x39,
   0x30,0x2C
};

int bach_fugue_2_1cnt = 9010;
